<svg id="meeting" xmlns="http://www.w3.org/2000/svg" width="722" height="628.508" viewBox="0 0 722 628.508">
  <ellipse id="Ellipse_1" data-name="Ellipse 1" cx="199" cy="10" rx="199" ry="10" transform="translate(126 608.508)" fill="#e6e6e6" />
  <circle id="Ellipse_2" data-name="Ellipse 2" cx="98.754" cy="98.754" r="98.754" transform="translate(0 0)" fill="#e6e6e6" />
  <circle id="Ellipse_3" data-name="Ellipse 3" cx="82.295" cy="82.295" r="82.295" transform="translate(16.459 16.459)" fill="#15a405" />
  <circle id="Ellipse_4" data-name="Ellipse 4" cx="98.754" cy="98.754" r="98.754" transform="translate(262.246 0)" fill="#e6e6e6" />
  <circle id="Ellipse_5" data-name="Ellipse 5" cx="82.295" cy="82.295" r="82.295" transform="translate(278.705 16.459)" fill="#fff" />
  <circle id="Ellipse_6" data-name="Ellipse 6" cx="98.754" cy="98.754" r="98.754" transform="translate(524.492 0)" fill="#e6e6e6" />
  <circle id="Ellipse_7" data-name="Ellipse 7" cx="82.295" cy="82.295" r="82.295" transform="translate(540.951 16.459)" fill="#fff" />
  <path id="Path_1" data-name="Path 1" d="M91.121,132.566,67.146,101.741,81.088,90.9l11.352,14.6,38.349-40.481L143.612,77.16Z" fill="#fff" />
  <path id="Path_2" data-name="Path 2" d="M512.744,254.637c-6.485-15.664-7.538-30.447,1.6-43.579h0a32.975,32.975,0,0,1,35.175-31.687l5.961.4a32.846,32.846,0,0,1,28.291,20.387c11.115,27.568,11.465,64.207,8.691,103.478H510.94C515.782,285.273,518.268,268.036,512.744,254.637Z" transform="translate(-239 -135.746)" fill="#2f2e41" />
  <path id="Path_3" data-name="Path 3" d="M407.462,302.7l-21.544-9.678a16.418,16.418,0,0,1-7.14-23.765h0a16.418,16.418,0,0,1,26.6-1.579l9.953,12.221,46.4,41.154,30.845-20.584,13.98,23.7-50.035,30.224Z" transform="translate(-239 -135.746)" fill="#9f616a" />
  <path id="Path_4" data-name="Path 4" d="M504.309,331.138,487.3,298.591l66.232-29.5.573,6.226a33.008,33.008,0,0,1-13.615,29.838Z" transform="translate(-239 -135.746)" fill="#929568" />
  <path id="Path_5" data-name="Path 5" d="M590.137,267.146l-67.55,55.9-3.882-5.435,18.635-33.387,8.541-3.882c2.046-8.67-3.178-20.3-10.094-32.611l32.61-4.659C569.971,253.653,577.138,261.712,590.137,267.146Z" transform="translate(-239 -135.746)" fill="#9f616a" />
  <path id="Path_6" data-name="Path 6" d="M432.663,517.291,421.4,533.984l-89.679-50.857,12.423-61.338Z" fill="#2f2e41" />
  <path id="Path_7" data-name="Path 7" d="M553.256,732.622l-18.246-8.153-4.659-213.52-17.47-116.078,67.938-12.811L594.8,412.341C629.141,459.446,579.073,603.779,553.256,732.622Z" transform="translate(-239 -135.746)" fill="#2f2e41" />
  <path id="Path_8" data-name="Path 8" d="M554.727,729.721l3.744,8.148a10.824,10.824,0,0,1-8.305,15.235l-49.5,7.071a10.173,10.173,0,0,1-11.22-7.276h0a10.173,10.173,0,0,1,4.67-11.59L535.7,720.5Z" transform="translate(-239 -135.746)" fill="#2f2e41" />
  <path id="Path_9" data-name="Path 9" d="M669.346,649.883l8.943-.656a10.825,10.825,0,0,1,11.366,13.11l-10.693,48.844a10.173,10.173,0,0,1-10.741,7.965h0a10.172,10.172,0,0,1-9.224-8.43l-4.949-46.237Z" transform="translate(-239 -135.746)" fill="#2f2e41" />
  <circle id="Ellipse_8" data-name="Ellipse 8" cx="31.058" cy="31.058" r="31.058" transform="translate(277.375 60.744)" fill="#9f616a" />
  <path id="Path_10" data-name="Path 10" d="M579.267,386.718l-67.55,13.976-1.553-45.034c-9.781-10.356,13.032-51.831,20.964-71.432l10.094-3.106L524.14,312.18l59.786-48.916,11.647,3.106,3.106,56.68Z" transform="translate(-239 -135.746)" fill="#929568" />
  <path id="Path_11" data-name="Path 11" d="M583.925,413.894,569.276,432.42a16.418,16.418,0,0,1-24.789,1.117h0a16.418,16.418,0,0,1,4.968-26.177l14.283-6.665,51.245-34.94-12.423-34.94,26.4-7.764,17.082,55.9Z" transform="translate(-239 -135.746)" fill="#9f616a" />
  <path id="Path_12" data-name="Path 12" d="M586.642,297.428H530.373c2.114-10.636,7.782-20.285,23.284-27.2,11.3-21.6,16.132-41.2,0-54.29-18.427-4.245-25.563-11.954-23.284-22.55l32.985-5.435C590.485,212.108,590.795,253.347,586.642,297.428Z" transform="translate(-239 -135.746)" fill="#2f2e41" />
  <path id="Path_13" data-name="Path 13" d="M635.17,326.932l-35.716,8.541L587.031,264.04l6.177.965A33.008,33.008,0,0,1,618.815,285.5Z" transform="translate(-239 -135.746)" fill="#929568" />
</svg>
